<svg width="134" height="140" viewBox="0 0 134 140" fill="none" xmlns="http://www.w3.org/2000/svg">
<path d="M85.9514 87.7545L69.4886 81.2L25.5238 95.7727L0 85.9091V99.3364L25.5238 107.864L85.9514 87.7545ZM54.6848 72.6727L38.2857 50.9091H0V73.8818L25.5238 82.4091L54.6848 72.6727ZM25.5238 121.227L0 112.764V140H127.619L95.9057 97.8727L60.7148 109.55L25.5238 121.227ZM95.7143 38.1818V6.36364L63.8095 0L44.6667 12.7273V38.1818L63.8095 50.9091L95.7143 38.1818ZM105.286 44.5455L89.3333 57.2727V76.3636L105.286 89.0909L134 76.3636V50.9091L105.286 44.5455Z" fill="#F8F8F8"/>
</svg>
