<svg width="24" height="24" viewBox="0 0 24 24" fill="none" xmlns="http://www.w3.org/2000/svg">
<path d="M14 24C8.477 24 4 19.523 4 14C4 8.477 8.477 4 14 4C19.523 4 24 8.477 24 14C24 19.523 19.523 24 14 24ZM14 22C16.1217 22 18.1566 21.1571 19.6569 19.6569C21.1571 18.1566 22 16.1217 22 14C22 11.8783 21.1571 9.84344 19.6569 8.34315C18.1566 6.84285 16.1217 6 14 6C11.8783 6 9.84344 6.84285 8.34315 8.34315C6.84285 9.84344 6 11.8783 6 14C6 16.1217 6.84285 18.1566 8.34315 19.6569C9.84344 21.1571 11.8783 22 14 22ZM14 9C14.2652 9 14.5196 9.10536 14.7071 9.29289C14.8946 9.48043 15 9.73478 15 10V15C15 15.2652 14.8946 15.5196 14.7071 15.7071C14.5196 15.8946 14.2652 16 14 16C13.7348 16 13.4804 15.8946 13.2929 15.7071C13.1054 15.5196 13 15.2652 13 15V10C13 9.73478 13.1054 9.48043 13.2929 9.29289C13.4804 9.10536 13.7348 9 14 9ZM14 19C13.7348 19 13.4804 18.8946 13.2929 18.7071C13.1054 18.5196 13 18.2652 13 18C13 17.7348 13.1054 17.4804 13.2929 17.2929C13.4804 17.1054 13.7348 17 14 17C14.2652 17 14.5196 17.1054 14.7071 17.2929C14.8946 17.4804 15 17.7348 15 18C15 18.2652 14.8946 18.5196 14.7071 18.7071C14.5196 18.8946 14.2652 19 14 19Z" fill="black"/>
</svg>
